# xmcd
#
# Track frame offsets:
#	150
#	17823
#	28898
#	43445
#	55873
#	69682
#	86457
#	102419
#	117475
#	135597
#	149023
#	160971
#	179879
#	197942
#
# Disc length: 2885 seconds
#
# Revision: 1
# Processed by: cddbd v1.5.1PL0 Copyright (c) Steve Scherf et al.
# Submitted via: dBpowerAMP V4.0
#
DISCID=df0b430e
DTITLE=ESTELAR CIA SHOW - Xec-Xec
DYEAR=1900
DGENRE=Bandinha
TTITLE0=A Procura de Alguém
TTITLE1=Xec-Xec
TTITLE2=Café na Cama
TTITLE3=Vai Querer me Amar
TTITLE4=Somente Sua
TTITLE5=Que Avião
TTITLE6=Historia de Amor
TTITLE7=Festa de Rodeio
TTITLE8=Noite Linda
TTITLE9=Mexe Com Meu Coração
TTITLE10=Mas Bah, Tchê
TTITLE11=Menina Castelhana
TTITLE12=Filé Mignon
TTITLE13=Sem Você
EXTD=
EXTT0=
EXTT1=
EXTT2=
EXTT3=
EXTT4=
EXTT5=
EXTT6=
EXTT7=
EXTT8=
EXTT9=
EXTT10=
EXTT11=
EXTT12=
EXTT13=
PLAYORDER=
